<?xml version="1.0" encoding="UTF-8" standalone="no"?>
<svg
   version="1.1"
   shape-rendering="geometricPrecision"
   text-rendering="geometricPrecision"
   image-rendering="optimizeQuality"
   fill-rule="evenodd"
   clip-rule="evenodd"
   viewBox="-14825 -7950 38180 19999"
   preserveAspectRatio="xMidYMid"
   id="svg1"
   sodipodi:docname="map.svg"
   width="38180"
   height="19999"
   inkscape:version="1.4 (86a8ad7, 2024-10-11)"
   xmlns:inkscape="http://www.inkscape.org/namespaces/inkscape"
   xmlns:sodipodi="http://sodipodi.sourceforge.net/DTD/sodipodi-0.dtd"
   xmlns="http://www.w3.org/2000/svg"
   xmlns:svg="http://www.w3.org/2000/svg">
  <defs
     id="defs1" />
  <sodipodi:namedview
     id="namedview1"
     pagecolor="#ffffff"
     bordercolor="#000000"
     borderopacity="0.25"
     inkscape:showpageshadow="2"
     inkscape:pageopacity="0.0"
     inkscape:pagecheckerboard="0"
     inkscape:deskcolor="#d1d1d1"
     inkscape:zoom="0.028822418"
     inkscape:cx="13982.172"
     inkscape:cy="9280.9702"
     inkscape:window-width="1620"
     inkscape:window-height="1009"
     inkscape:window-x="1193"
     inkscape:window-y="1432"
     inkscape:window-maximized="1"
     inkscape:current-layer="Livello_x0020_1" />
  <g
     id="Livello_x0020_1"
     inkscape:label="Livello 1"
     inkscape:groupmode="layer">
    <metadata
       id="CorelCorpID_0Corel-Layer" />
    <g
       id="_2626317407344">
      <path
         fill="#333333"
         d="m 4547.27,-175.32 c -20.65,-1.39 -40.84,-1.32 -59.13,0.79 z m 955.11,-59.9 -88.8,-13.54 c 34.17,-26.08 -38.58,-37.14 43.46,-21.53 51.02,9.7 19.4,0.09 45.34,35.07 z m -1006.17,60.52 c -1.11,1.11 -3.97,1 -8.07,0.17 -20.74,-4.25 -73.72,-27.34 -99.63,-8.48 -53.55,38.95 -65.55,154.15 141.11,154.15 l 42.54,51.66 66.84,24.3 c 41.1,0 42.38,-17.15 51.61,-53.9 l 0.96,-3.79 c 2.12,-8.2 4.67,-17.32 8.16,-27.38 l 36.47,-48.6 c 72.1,-52.35 72.49,-95.63 -10.68,-104.13 -27,-2.75 -73.73,15.78 -115.38,15.74 -12.88,-0.01 -38.3,-0.31 -62.87,-0.36 -19.95,-0.04 -39.35,0.07 -51.06,0.62 z m -12374.83,-4711.76 6.41,-6.18 c -0.41,0.39 -8.54,4.13 -6.41,6.18 z m 8605.13,-166.11 c 2.15,2.07 6.41,-9.11 6.41,-6.2 l 0.01,0.02 c -0.42,0.39 -8.55,4.11 -6.42,6.18 z m 43.03,-2657.85 19.66,-5.34 -12.38,-15.32 -7.28,20.66 c -121.42,-45.45 -308.6,96.81 -469.6,-27.89 44.2,-60.58 39.84,-21.75 60.86,-96.71 -515.03,0 -745.97,83.08 -1118.66,83.08 20.27,-53.3 68.81,-87.84 125.05,-107.73 38.46,-13.58 153.85,-33.88 197.64,-37.63 -90.01,-60.19 -551.1,-43.1 -689.55,-42.62 -263.92,0.92 -60.51,141.13 -244.04,114.85 -54.41,-7.79 -103.01,-25.32 -142.07,-51.47 -70.57,-16.51 -78.24,-41.94 -150.3,-42.22 -67.96,-0.25 -105.19,33.66 -164.32,35.77 -108.38,3.87 -93.12,-109.57 -246.55,4.67 -12.73,71.74 -19.36,53.36 15.98,122.81 94.36,-54.13 44.11,-47.69 113.1,-102.05 88.12,22.95 165.18,112.06 173.94,209.43 -404.97,94.18 -521.86,-73.66 -760.32,34.41 l -3.11,97.08 c -107.46,31.33 -25.44,34.55 -210.18,-88.18 -84.98,111.16 2.82,104.09 -342.49,94.5 -108.88,-3.01 -317.91,31.11 -412.3,104.25 -16.8,166.69 16.46,149 -197.74,178.94 l -304.3,83.99 c -387.79,189.74 78.24,97.18 186.73,97.18 -27.03,292.83 -243.79,248.93 -430.26,332.23 -81.96,50.32 -354.52,1.56 -408.75,145.35 3.79,3.25 9.14,4.02 11.11,10.06 1.98,6.06 8.8,8.06 11.71,9.49 77.42,38.21 192.34,30.26 273.83,32.64 74.43,2.19 199.58,-13.06 262.68,72.4 -37.12,49.69 -87.35,56.85 -150.58,62.3 -48.43,29.51 -77.12,23.18 -135.59,31.37 l -144.08,51.68 c 247.89,21.32 94.79,212.06 441.71,136.97 178.76,-38.69 369.55,-25.81 527.05,-32.49 352.14,-14.95 228.04,-102.29 420.59,174.13 58.39,83.83 124.1,109.91 162.96,195.72 63.78,140.84 77.5,104.72 140.07,197.15 63.64,94.07 5,136.34 12.41,199.24 5.75,48.76 30.63,55.79 39.6,65.46 l 100.6,-150.71 c 321.84,205.71 -29.48,330.97 -55.74,353.01 132.18,10.05 249.07,44.8 319.01,148.92 -23.23,82.83 -82.21,96.35 -129.07,166.11 27.43,69.21 32.04,30.46 87.89,102.06 -66.85,89.31 -219.66,55.69 -179.48,173.23 62.09,8.39 13.97,-0.74 78.5,-39.54 84.54,-50.83 98.51,12.89 99.13,13.43 -31.5,112.35 -63.3,31.56 -78.92,156.08 -8.98,71.47 -42.23,66.33 -96.86,134.62 50.97,63.94 40.7,38.3 52.25,122.81 65.63,-45.67 33.26,-38.08 123.53,-39.75 -1.72,86.53 6.01,55.02 -39.32,117.48 29.73,48.45 33.59,63.24 49.71,104.85 l 54.49,88.05 c 415.52,600.03 553.24,189.44 559,478.67 104.26,-1.91 163.84,-51.82 216.25,-102.74 78.73,-76.48 73.08,-101.82 65.07,-211.02 -5.11,-69.82 -11.7,-66.56 21.11,-120.97 29.75,-49.35 26.91,-7 61.05,-107.29 40.76,-119.72 33.13,-98.8 121.28,-194.42 163.84,-177.76 217.64,-209.06 367.04,-227.45 261.85,-32.23 258.88,-128.42 336.06,-319.01 48.06,-29.71 49.47,-1.1 123.99,-45.13 181.75,-107.34 6.49,-122.06 538.96,-124.84 346.69,-1.81 383.81,-166.41 687.7,-166.76 v -41.53 c -84.83,-1.73 -186.35,-35.77 -260.83,-40.24 -123.26,-7.43 -119.1,66.1 -232.12,-27.39 24.99,-33.31 31.59,-33.4 57.95,-60.93 112.65,-117.63 -35.48,-190.07 257.38,-156.8 58.53,77.49 23.75,85.41 129.07,158.99 156.04,-112.29 -49.52,-233.97 -125.81,-265.97 -165.94,-69.64 -195.97,42.71 -316.75,-50.83 114.01,-218.73 -64.04,-52.61 -68.23,-262.82 41.59,0 189.32,14.34 196.45,13.83 105.27,-7.56 28.44,-52.95 88.76,-133.08 98.12,-11.05 164.57,33.92 244.28,85.78 115.56,75.2 129.9,65.12 244.98,116.52 -16.13,-139.09 -113.13,-30.32 -129.08,-207.64 107.61,-25.02 142.11,-20.76 258.15,-20.76 -22.69,-80.99 1.46,-17.58 -71.16,-97.41 -84.22,-92.58 -29.2,-44.74 -134.7,-77.46 -2.66,-0.83 -44.04,-16.94 -46.02,-17.97 -56.01,-29.3 -31.26,-20.34 -51.13,-37.35 49.31,-63.15 32.25,-40.98 82.96,-54.18 l 134,-47.86 c -54.79,0 -92.16,3.37 -143.04,-7.28 -2.61,-0.54 -64.14,-20.78 -64.4,-20.9 -59.52,-27.9 -31.84,-17.97 -50.71,-34.11 18.85,-49.52 8.63,-79.41 149.14,-84.48 74.68,-2.69 161.74,1.42 238.09,1.42 -38.79,-137.62 -76.73,4.22 -191.69,-107.37 -63.84,-62.01 -25.47,-32.16 -30.75,-82.12 -6.51,-61.61 -20.04,-59.57 -35.71,-121.98 117.46,-100.89 116.4,-34.42 172.81,-123.91 60.19,-95.48 -10.89,-25.3 93.51,-137.99 34.24,-36.98 17.81,10.15 20.72,-35.92 l -200.75,10.58 c 20.41,-232.91 294.43,-79.99 422.13,-177.2 106.45,-81.04 -3.32,-57.53 187.96,-109.28 63.79,-17.26 170.45,-59.01 223.14,-96.08 -3.38,-2.06 1.55,-9.23 -49.85,-24.02 l -245.16,-34 c -136.21,6.85 -149.95,81.08 -383.46,77.81 -80.23,-1.11 -77.31,-17.02 -154.35,-15.18 -114.17,2.76 -154.34,65.27 -266.18,49.37 l -3.1,-97.07 c -233.66,-69.81 -554.61,20.5 -763.97,69.18 -91.96,61.56 -349.35,145.63 -494.81,145.36 9.83,-107.96 179.46,-153.11 276.51,-189.93 279.61,-106.08 232.22,-96.58 505.17,-154.76 77.39,-16.49 147.98,-1.86 227.55,-10.13 96.27,-10 312.55,-49.06 367.59,-122.76 z m 17016.66,7641.33 -5.51,-18.98 -15.88,11.95 21.39,7.03 -38.22,45.95 -133.88,-45.95 c -112.35,214.1 -84.06,162.66 -318.05,212.12 -185.99,39.32 -244.2,147.26 -347,204.95 l -126.7,-52.25 c -1.5,132.84 60.55,159.54 101.35,261.36 35.41,88.37 -44.39,169.61 66.54,245.93 109.17,-28.52 158.1,-200.59 207.76,-297.83 43.66,-4.33 72.5,3.02 132.6,-16.11 30.96,-9.86 30.98,-9.59 58.35,-28.88 32.85,-23.16 -8.89,7.36 21.68,-18.98 8.34,-7.18 25.84,-24.19 27.68,-25.61 -59.79,-97.12 -52.98,-49.31 -125.39,-110.94 191.52,0.17 124.17,67.97 236.66,145.35 124.3,-61.03 66.19,-131.76 341.13,-138.51 73.44,-1.81 62.5,8 132.15,-6.84 2.95,-4.12 7.38,-15.56 8.46,-12.59 l 145.05,-481.62 c 26.16,-63.6 59.69,-84.23 62.75,-170.82 3.83,-107.64 -80,-255.99 -183.33,-213.95 -82.91,33.72 -117.24,280.5 -118.99,359.86 l -150.6,-20.77 -23.24,39.83 c 22.39,53.13 68.17,69.15 23.24,126.3 z m -22717.56,10963.65 -5.53,-18.99 -15.89,11.96 z M 5678.16,235.26 c 49,33.22 -1.17,31.34 80.51,1.77 -25.27,-18.17 -70.32,-53.21 -80.51,-1.77 z M 5611.78,91.69 c 76.14,8.11 51.71,16.16 107.56,-13.65 L 5683,8.01 c -94.1,43.27 -14.52,-10.12 -71.22,83.68 z M 5841.01,6.73 c 28.84,64.87 -25.55,23.34 62.73,65.97 43.65,-56.77 44.41,-40.42 9.22,-102.04 z m 13946.58,5610.06 81.69,2.88 2.95,-78.8 -81.64,-2.84 z m -982.88,4111.4 c 71.9,-34.74 79.62,-28.43 37.47,-102.04 -75.02,24.45 -93.94,28.59 -37.47,102.04 z M 2250.25,-2976.12 c 55.11,64.1 59.81,64.1 114.92,0 -40.73,-47.37 -84.2,-59.54 -114.92,0 z m 18694.67,13746.08 c 55.13,64.1 59.81,64.1 114.94,0 -40.75,-47.37 -84.23,-59.52 -114.94,0 z M 19553.96,5343.32 c 58.78,42.04 16.04,36.76 89.73,14.23 15.57,-59.05 17.7,-12.58 -12.9,-88.39 -50.42,28.77 -45.62,13.95 -76.83,74.16 z m -3703.9,-2107.3 c 66.41,-53.2 66.41,-57.74 0,-110.94 -58.84,53 -76.44,49.69 0,110.94 z M 3528.72,4922.9 c 3.68,-2.57 2.02,-2.57 5.7,0 -0.55,3.41 0.5,1.38 -2.66,4.4 -3.19,-2.54 -2.52,-0.77 -3.04,-4.4 z m 966.24,-4760.02 14.68,76.58 c 65.22,-11.31 81.61,-23.67 75.05,-87.26 -43.43,-13.17 -59.09,-19.84 -89.73,10.68 z m 13033.09,4709.96 c 223.05,-24.08 -98.4,-197.66 0,0 z M 2259.47,-3126.81 c 59.64,41.8 15.94,34.44 87.89,12.45 15.56,-59.05 17.7,-12.57 -12.9,-88.39 -67.39,37.94 -63.01,3.37 -74.99,75.94 z m -7384.45,13979.84 c 87.26,-1.63 62.1,19.8 107.57,-41.54 -63.23,-85.21 -102.97,-44.49 -107.57,41.54 z M 7328.88,5269.14 c 64.1,33.97 47.15,33.26 105.95,-8.88 -39.3,-75.86 -4.74,-56.74 -100.18,-51.61 z m 6751.6,-1870.56 -18.88,82.7 c 95.13,-7.47 64.47,3.41 108.6,-77.37 -93.72,-35.17 -33.51,-31.43 -89.72,-5.33 z M 7346.94,5599.61 c -38.54,83.73 39.55,87.56 67.91,60.19 20.89,-20.13 24.32,-39.86 3.22,-61.4 -52.46,-53.59 -62.74,-3.09 -71.13,1.21 z M 17598.13,9145 c 62.21,43.59 34.29,43.59 96.5,0 -8.51,-52.05 5.06,-35.42 -53.47,-75.94 -38.95,28.15 -45.08,18.63 -43.03,75.94 z M 3742,4402.39 c 40.51,56.09 24.56,41.86 76.83,49.83 45.17,-60.04 45.17,-33.09 0,-93.14 -98.17,-0.56 -21.81,-21.2 -76.83,43.31 z M 8494.5,-7414.38 c 42.54,77.48 3.95,58.66 102.03,53.39 l 5.84,-60.48 c -44.31,-23.5 -60.29,-40.26 -107.87,7.09 z M 7268.27,5397.3 c 42.55,77.49 3.93,58.67 102.04,53.39 l 5.83,-60.48 c -44.33,-23.5 -60.31,-40.27 -107.87,7.09 z M 17506.55,-5841.62 c 226.26,-4.82 4.92,-215.37 0,0 z m -3011.8,10880.59 c 226.26,-4.82 4.92,-215.37 0,0 z m 0,-11752.7 -80.63,-23.89 -5.96,106.95 c 90.17,-7.61 78.7,3.46 86.59,-83.06 z m -17554.5,5253.41 c 4.96,217.67 225.55,4.81 0,0 z m 16436.16,-4848.84 82.24,61.7 42.6,-53.62 -57.52,-66.11 z m -23061.79,166.13 82.24,61.69 42.6,-53.62 -57.53,-66.12 z m 14276.84,3589.32 c 61.19,15.02 13.02,17.07 91.57,-12.47 -49.5,-100.52 13.71,-45.95 -64.52,-79.49 -52.17,46.79 -53.66,16.56 -27.05,91.96 z m 550.73,-863.81 c 59.64,41.82 15.94,34.45 87.89,12.47 22.78,-69.46 30.41,-27.27 -12.9,-84.85 -55.6,10.57 -66.31,12.6 -74.99,72.38 z m 14165.9,-2880.92 -9.72,69.42 87.11,7.89 7.65,-84.49 c -93.81,-25.77 -35.33,-17.76 -85.04,7.18 z m -14226.51,1217.61 19.37,1.75 1.85,-20.5 z M 3828.05,4211.94 c 12.27,60.04 15.51,64.82 76.84,74.17 43.31,-57.58 35.68,-15.39 12.91,-84.84 -43.44,-13.16 -59.11,-19.83 -89.75,10.67 z M 3178.98,-235.22 c 86.24,-1.59 42.12,15.93 102.05,-26.09 -8.16,-54.02 5.17,-31.61 -44.89,-74.17 -62.38,47.37 -49.85,21.8 -57.16,100.26 z m 14564.21,6499.3 h -107.57 c 11.13,122.83 96.31,123.49 107.57,0 z M 5179.68,-69.09 h 107.57 c -11.8,-129.47 -101.44,-114.59 -107.57,0 z m 9315.07,-6312.4 109.34,-37.88 c -47.68,-71.15 -31.26,-59.15 -109.34,-65.94 z m 5235.92,11800.78 46.38,54.66 c 69.1,-43.84 35.78,-8.69 74.4,-81.98 l -101.99,-23 z M 16708.72,617.92 c 47.78,56.23 24.07,47.85 95.27,26.1 l 8.22,-76.53 c -62.06,-13.06 -86.19,-5.48 -103.49,50.43 z M -5110.84,11275.43 c 68.2,16.74 71.42,6.21 95.27,-50.43 -63.93,-75.27 -125.7,-35.78 -95.27,50.43 z M 13352.71,-6421.24 c 58.7,-23.03 69.61,-26.14 52.26,-91.96 -90.78,-27.51 -133.58,27.6 -52.26,91.96 z m 2968.78,9323.25 c 67.19,50.01 49.94,46.37 111.25,0 l -45.78,-82.48 c -54.97,33.25 -45.85,18.29 -65.47,82.48 z M 3614.76,4597.57 c 59,39.74 21.01,32.32 87.91,12.46 l 7.58,-76.58 c -82.44,-21.33 -101.65,-15.75 -95.49,64.12 z m 19077.78,-9958.36 c 38.93,74.93 12.13,63.95 79.13,74.47 49.46,-65.76 31.88,-38.91 0,-117.47 z m -17292.2,2233.98 c 59.92,42.02 15.79,24.49 102.04,26.11 -1.28,-51.08 17.64,-89.45 -46.49,-94.38 -40.92,-3.15 -50.56,39.26 -55.55,68.27 z m 13574.61,-3176.97 c 43.67,0.41 64.25,13.24 72.07,-39.31 9.14,-61.21 -43.26,-55.39 -57.94,-60.94 -58.74,50.82 -61.65,36.88 -14.13,100.25 z M -5119.44,11001.93 c -0.42,43.94 -14.49,62.86 41.17,71.27 62.44,9.46 55.72,-29.65 55.32,-69.49 -54.32,-37.95 -34.28,-48.46 -96.49,-1.78 z M 18447.57,9767.92 c 43.54,-57.82 25.39,-15.22 27.05,-98.47 -52.84,1.53 -93.05,-12.14 -98.67,45.21 -4.23,42.96 44.61,48.73 71.62,53.26 z M -10712.8,-5277.42 c -0.41,43.94 -14.47,62.86 41.17,71.28 62.47,9.45 55.73,-29.65 55.35,-69.5 -54.33,-37.94 -34.3,-48.46 -96.52,-1.78 z m 25277.61,9521.99 c 27.39,-4.6 75.85,-10.23 71.65,-53.69 -5.61,-57.79 -47.15,-43.58 -98.68,-44.78 1.57,78.92 -16.99,41.53 27.03,98.47 z M 16624.52,429.26 c -88.38,20.54 -65.67,9.27 -87.89,64.06 47.97,56.54 22.54,46.89 95.26,26.12 23.3,-71.42 24.43,-23.5 -7.37,-90.18 z m -25801.3,-6782.87 c 76.61,23.4 53.52,21.26 111.27,-35.01 -56.88,-78.74 -149.46,-73.27 -111.27,35.01 z m 23758.69,11264.47 106.45,4.04 c -28.27,-70.52 15.93,-93.6 -107.57,-104.34 z M 575.92,-5550.92 c -9.84,-108.21 -115.6,-122.55 -215.12,-124.59 48.58,66.36 138.01,75.53 215.12,124.59 z m 4383.32,2657.04 99.45,-6.91 c 23.36,-75.72 28.24,-55.98 -13.61,-111.53 l -55.29,-3.42 z m 11003.92,6037.94 c 67.23,-11.29 63.04,-17.41 82.35,-79.5 -44.13,-56.56 -23.64,-45.47 -84.21,-55.17 -39.05,58.16 -42.02,76.39 1.86,134.67 z m -20975.05,6956.1 c 58.72,-9.87 39.85,-0.66 82.37,-55.17 -28.76,-92.45 -49.16,-61.91 -103.88,-81.28 -8.46,75.56 -22.44,78.06 21.51,136.45 z m 22543.64,-16266.89 39.33,75.94 c 63.82,-16.67 42.77,-2.67 87.91,-60.51 l -44.48,-85.08 c -54.67,30.07 -46.55,13.03 -82.76,69.65 z m -28572.78,4145.77 c -0.08,-89.54 -30.21,-195.96 -107.55,-249.16 1.95,88.95 30.82,200.54 107.55,249.16 z m 14991.64,1243.31 36.99,89.57 c 79.52,-22.4 75.71,-21.1 96.77,-88.79 l -85.85,-63.51 z M 14682.83,2303.4 c 80.69,24.91 127.01,-27.77 134.62,-109.17 -94.23,0.09 -175.65,7.36 -134.62,109.17 z M 4217.13,-2638.55 c 7.5,56.47 6.03,62.03 59,98.48 73.85,-46.79 65.94,-37.06 60.86,-121.03 -78.74,-29.23 -51.64,-43.37 -119.86,22.55 z M 19033.96,-6028.5 v -41.52 c -110.57,-2.26 -159.25,-41.43 -279.67,-41.54 55.66,82.5 175.45,83.24 279.67,83.06 z m -6346.3,-1328.92 c 47.63,70.04 50.64,76.22 136.46,48.64 l 8.48,-97.34 c -70.05,-17.99 -107.71,-3.85 -144.94,48.7 z m -23938.27,4884.99 c 7.38,55.57 6.63,60.45 57.16,100.25 80.78,-49.34 73.14,5.61 62.7,-122.8 -79.69,-26.77 -56.98,-37.67 -119.86,22.55 z m 6729.85,14431.31 c 22.07,55.6 0.59,127.91 134.59,84.84 l 17.22,-68.91 c -8.52,-5.15 -17.12,-32.47 -66.27,-34.4 -1.76,-0.07 -83.5,17.99 -85.54,18.47 z m -6713.86,-14644.29 c 0,82.36 -14.84,42.84 27.03,98.47 116.96,-20.18 38.87,-74.86 78.67,-155.43 l -105.69,-6.2 z M 3372.59,-359.8 c 52.05,-0.96 190.38,-49.62 216.97,-60.51 l -47.34,-84.41 c -92.83,52.35 -159.72,36.17 -169.63,144.92 z m 778.89,39.71 105.4,-61.77 c 2.22,-111.9 -12.22,-211.29 -78.05,-242.3 -98.86,-46.61 -50.21,178.55 -27.35,304.07 z m 2338.63,522.72 c 61.52,71.94 165.58,74.35 197.31,-24.33 -61.19,-71.57 -166.9,-70.21 -197.31,24.33 z M -10465.7,-1849.5 c 66.29,63.11 102.37,141.12 177.64,160.78 31.49,-56.62 17.66,-49.54 -98.62,-133.21 -97.87,-70.42 -109.04,-95.08 -245.59,-95.21 60.59,89.79 56.89,55.43 166.57,67.64 z m 28888.57,-4213.39 c 102.55,-30.51 115.97,-32.29 137.81,-90.2 -14.98,-12.81 -6.45,-16.23 -35.3,-28.22 -53.94,-22.39 -2.55,-6.9 -50.98,-13.09 -35.33,-4.5 -110.83,-0.22 -150.37,-0.22 z M -4992.21,11500.27 c 13.79,67.49 25.87,52.95 77.9,104.59 76.07,75.5 26.02,43.09 61.63,116.71 l 54.2,-55.22 c -31.67,-93.09 -86.23,-273.09 -193.73,-166.08 z m 24436.76,-6334.94 59.22,-91.84 c -57.51,-44.79 -88.61,-113.14 -186.46,-114.02 -5.47,109.8 26.81,166.63 127.24,205.86 z M 8234.51,-4886.46 c 78.55,18.22 55.55,30.89 137.3,-11.47 76.24,-39.53 76.19,-51.98 77.82,-133.88 -125.45,-29.38 -202.1,0.53 -215.12,145.35 z m 1271.1,-122.8 78.67,-58.74 c -62.19,-103.9 -126.79,-129.82 -252.62,-129.92 2.17,109.85 70.69,158.44 173.95,188.66 z m 12647.71,-230.18 c 60,5.09 95.32,11.92 153.84,8.32 69.3,-4.24 87.74,-29 190.37,-29.1 -15.46,-169.6 -261.19,-54.27 -363.88,-15.42 z M 9181.07,-7045.96 c 87.56,-22.87 169.78,-117.45 156.12,-192.22 l -220.67,-36.19 c 11.54,128.7 37.55,35.21 60.45,209.06 z m -13011.58,5302.05 c 43.01,29.86 297.3,185.16 287.9,39.6 -4.73,-73.32 -82.32,-87.03 -135.31,-95.52 -71.65,-11.46 -108.13,-10.58 -152.59,55.92 z M 18108.9,-5717.04 c 91.12,21.19 186.52,41.45 279.67,0 -63,-92.64 -56.86,-35.41 -133.02,-79.24 -88.45,-50.89 -18.9,-79.43 -125.14,-107.63 -7.54,14.48 -5.03,1.53 -10.92,25.6 -0.34,1.33 -6.8,37.23 -7.13,40.06 -4.71,41.92 -3.46,79.09 -3.46,121.21 z m -31473.31,2657.86 c -64.18,93.63 -64.4,31.17 -64.53,166.11 86.9,-7.28 108.8,-27.84 170.79,-84.32 17.44,-15.87 42.59,-41.87 62.15,-66.7 127.65,-161.84 -98.12,-49.45 -168.41,-15.09 z M 8901.4,-7353.86 c -67.32,-50.02 -36.73,-43.38 -129.08,-45.1 2.51,99.77 -24.37,84.1 74.34,90.62 100.13,6.6 25.85,-7.3 111.91,51.17 84.79,-34.71 118.35,-17.77 181.32,-98.47 -64.06,-86.49 -143.04,-54.12 -238.49,1.78 z m -14090.92,1699.13 c -56.48,-76.48 -380.64,-210.71 -388.08,-63.02 -8.34,166.34 276.42,65.5 388.08,63.02 z m 24207.5,11041.35 c 134.31,12.55 319.02,-153.24 268.6,-283.58 -53.8,30.29 -125.42,86.43 -198.1,113.15 -15.89,5.82 -185.32,30.39 -70.5,170.43 z M 11568.99,3855.39 c 95.81,42.57 171.05,12.3 181.39,-92.78 7.73,-78.4 -73.03,-176.97 -138.36,-218.69 -64.16,94.71 -83.14,212.15 -43.03,311.47 z M 7933.33,-7191.31 c 48.51,30.99 277.03,257.02 383.55,131.71 -92.99,-90.64 -63.88,-6.88 -146.92,-90.18 28.02,-98.3 40.29,-29.42 103.88,-117.47 -117.89,-114.9 -264.75,-34.62 -340.51,75.94 z m -17683.58,809.82 c -67.19,44.62 -233.3,128.42 -231.1,226.62 88.88,-40.99 102.23,-19.12 180.7,18.99 64.49,-61.44 115.34,-156.8 185.03,-198.75 l 100.77,43.44 c 35.56,-29.07 69.1,-62.8 85.81,-87.8 19.03,-28.45 21.62,-68.8 23,-127.09 -287.65,139.47 -211.64,66.11 -344.21,124.59 z m 22717.58,-789.05 c 134.45,85.53 341.19,83.74 467.76,-5.35 2.28,-105.31 -99.45,-134.23 -186.25,-183.32 -94.32,28.4 -251.7,82.39 -281.51,188.67 z m 5566.3,17026.86 c -13.53,34.27 -1.76,68.28 14.47,114.99 l 130.41,171.45 c 87.64,7.77 81.68,-17.68 140.31,4.27 l 74.26,-267.24 c -116.81,-27.31 -247.32,-81.82 -359.45,-23.47 z M 17786.2,-6070.02 c 77.85,107.91 131.54,124.93 277.84,18.97 l 237.7,66.41 -23.52,-86.65 c -25.91,-62.07 -18.89,-41.73 -18.74,-123.33 -118.24,10.29 -71.52,74.8 -200.71,29.31 -51.58,-18.18 -245.29,-200.16 -272.57,95.29 z m -4051.78,-553.53 c 92.36,29.68 175.77,-25.3 264.81,-49.35 73.13,-19.76 223.09,-30.63 274.84,-66.94 -15.98,-123.24 -238.58,-181.12 -317.53,-141.17 -50.37,25.5 -219.11,199.55 -222.12,257.46 z m 2443.86,10235.11 c -44.99,55.33 -74.54,92.89 -91.58,160.78 118.66,-10.32 37.24,-41.41 193.61,-41.53 l 45.1,144.8 c 317.57,2.07 215.79,-305.76 164.51,-326.34 -171.97,-1.33 -91.6,89.23 -311.64,62.29 z m -20661.57,8151.53 c -87.14,6.54 -99.02,-15.55 -164.72,31.45 59.33,73.06 165.62,42.46 258.25,72.31 114.29,36.82 128.4,90.2 248.85,-1.71 -16.12,-121.2 -188.87,-254.36 -290.13,-325.11 -52.59,59.24 -44.56,128.89 -52.25,223.06 z M 15226.18,5682.66 c -37.88,-135.08 -246.05,-222.9 -382.04,-223.73 -80.33,-0.5 -155.19,-0.12 -242.68,-24.6 -145.83,-40.82 -105.51,-42.36 -278.82,-42.36 44.19,177.05 270.17,164.61 418.44,199.99 92.38,22.04 118.28,17.46 221.81,33.04 115.96,17.44 135.17,57.55 263.29,57.66 z m -6923.44,-12908.37 125.41,203.58 c 57.09,12.99 113.17,49.88 157.94,45.58 l 18.49,-70.73 -115.45,-29.48 c 13.07,-33.44 -16.22,-65.39 170.09,-88.45 55.67,73.67 -1.83,54.46 89.76,121.03 75.28,-21.82 47.14,-21.24 109.39,-67.63 85.26,63.32 47.87,26.01 136.46,62.29 39.52,-47.67 57.36,-38.95 96.5,-93.14 -56.05,-84.11 -71.32,-91.03 -189.93,-3.56 l -57.59,-93.52 c -225.92,-23.13 -117.9,-76.69 -236.21,3.34 -157.06,-90.78 -167.78,-122 -304.86,10.69 z m 7977.57,10478.94 c 112.2,-71.21 19.29,-28.16 71.92,-100.27 l 72.94,36.55 c -13.58,-117.93 -393.56,-398.06 -403.02,-476.17 29.92,-119.18 46.33,-72.43 89.84,-132.02 19.38,-26.54 18.55,-119.98 14.04,-175.88 -99.66,-35.05 -172.32,-80.95 -211.14,58.82 -19.59,70.45 -38.77,293.96 -9.14,361.46 56.44,128.6 375.25,66.09 374.56,427.51 z m -14137.64,-5755.32 -128.68,61.3 c 43.8,318.26 -39.72,-3.93 -39.72,336.78 68.12,-15.93 259.2,-101.42 313.26,-133.69 117.54,-70.13 95.47,-222.78 95.47,-343.89 -104.6,-24.47 -271.5,-132.16 -240.33,79.5 z m 16226.23,1188.91 c 134.57,-167.12 -100.33,-47.98 -17.82,-436.06 l 145.06,39.76 c -8.27,-88.49 -83.58,-164.85 -103.45,-254.49 l -47.14,-430.75 c 0,-114.74 65.5,-148.75 -43.04,-186.87 -2.5,4.12 -5.75,6.42 -6.18,13.04 l -8.31,52.29 c -9.07,134.58 -42.67,121.83 -76.1,222.36 -44.43,133.63 61.84,246.52 69.82,438.34 l -2.35,417.56 c 2.87,89.71 4.54,102.69 89.51,124.82 z m 3203.58,10941.1 c 3.81,3.24 9.85,3.31 11.72,9.44 1.9,6.13 9.32,7.57 11.99,9.19 83.01,50.25 88.55,25.4 113.48,78.66 38.36,81.98 -64.55,93.9 77.94,131.11 l 61.92,-106.35 c 98.82,-271.82 166.91,-23.12 174.72,-350.46 l -123.84,24.73 -62.03,-133.17 -107.65,49.59 c -34.65,-88.22 -63.69,-126.35 -110.91,-194.49 -57.22,-82.59 -57.44,-132.92 -154.9,-141.19 48.09,92.33 130.03,195.52 164.23,277.55 96.11,230.65 -19.83,213.99 -56.67,345.39 z M 13053.39,-7025.2 Z m 0,0 c -2.4,-98.07 -84.03,-97.91 -159.21,-72.18 -92.63,31.7 -17.74,5.08 -57.77,32.43 58.85,69.58 85.55,56.61 172.09,65.86 l -85.55,68.27 c 171.9,25.93 574.87,146.53 732.8,217.09 28.49,-114.19 65.72,-253.34 -5.54,-347.65 -60.24,10.11 -62.31,20.71 -127.5,94.64 l -39.07,45.37 -107.56,-166.12 c -183.01,0 -173.18,22.55 -322.69,62.29 z m 5071.5,6057.89 c -81.17,57.14 -151.92,19.72 -139.16,153.64 7.31,76.72 40.21,154.09 144.68,163.17 18.45,-20.08 8.2,5.66 29.13,-45.24 22.51,-54.74 -26.2,10.03 21.27,-55.03 137.91,59.37 151.14,-34.85 259.18,-78.51 121.25,-48.98 163.58,-71.99 163.7,-215.75 -328.84,0 -172.21,-57.07 -403.19,-162.56 -80.52,84.58 -62.26,130.79 -75.61,240.28 z m -21313.71,-513.78 c 142.23,-0.1 178.51,-51.73 301.18,-62.28 -9.16,36.71 -22.52,60.33 -18.08,100.52 0.14,1.29 14.04,47.05 14.14,47.29 12.67,28.74 15.07,24.59 25.46,39.07 55.04,-20.06 66.81,-40.41 105.7,-84.84 l 102.05,39.75 44.4,-87.52 -97.92,-15.86 c 2.77,-242.98 -64.93,-246.05 -304.83,-246.05 53.48,-78 76.28,-57.4 86.05,-166.13 -197.4,54.03 -590.41,349.27 -258.15,436.05 z m -5464.26,-4609.7 c -257.87,0 -157.07,-15.08 -359.03,-89.56 -100.4,-37.02 -245.9,-81.75 -350.91,-35.03 -0.18,98.75 -14.68,104.34 48.57,181.54 104.84,2.83 73.05,-56.23 166.83,-54.38 54.07,1.06 125.34,38.34 150.33,59.72 -22.77,81.19 -69.89,69.42 -130.93,102.04 68.29,58.87 47.19,32.44 200.94,7.2 106.23,-17.43 128.68,-27.13 223.07,-54.76 133.25,-39 379.38,-37.32 418.68,-160.09 -52.66,-21.67 -107.91,6.88 -153.05,-17.96 -106.97,-58.89 -4.86,-129.23 -149.97,-167.13 -89.25,101.76 -6.8,107.48 -64.53,228.41 z m 2644.24,7975.34 c 1.71,2 3.4,3.89 5.11,5.73 1.86,-6.83 3.75,-13.64 5.7,-20.38 -3.7,4.71 -7.33,9.54 -10.81,14.65 z m 27129.56,8345.54 c -83.5,121.8 -255.93,236.57 -252.64,392.75 102.25,-47.17 167.16,29.87 297.5,45.08 l 122.47,-110.17 c 17.25,-148.59 -23.27,-135.76 82.22,-252.9 74.51,-82.77 116.08,-83.75 114.32,-221.89 96.07,-56.17 120.35,-67.48 103.87,-200.52 -223.77,-142.45 -153.9,147.23 -467.74,347.65 z m -27428.91,-16134 768.93,-46.88 70.07,-181.54 c -61.09,14.29 -72.47,27.65 -124.82,34.56 l -921.61,20.32 c -144.56,-25.81 -166.95,-60.65 -215.45,-186.58 l -545.2,-96.7 c 10.76,95.85 47.88,87.4 248.24,130.22 148.65,31.77 140.74,-14.81 192,154.7 13.6,44.94 37.43,57.64 89.08,77.33 67.28,25.65 81.8,19.81 131.1,21.98 72.63,3.2 253.83,39.79 307.66,72.59 z M 925.66,-4424.3 c -57.84,81.56 32.63,-0.41 -41.1,83.6 -98.66,112.43 -313.18,102.63 -373.17,139.48 262.56,61.04 117.56,53.45 237.6,144.42 68.53,51.96 245.44,52.6 330.49,30.12 133.11,-35.21 407.33,-121.13 487.89,-238.61 -169.59,-215.72 -98.44,-216.58 -246.31,-193.78 -138.27,21.33 -254.64,18.78 -395.4,34.77 z M -9470.57,-5571.68 c 56.48,-48.65 108.38,-83.7 129.08,-166.12 -136.94,-199.76 -296.77,-63.38 -430.26,-145.35 -492.72,-42.35 -283.22,111.4 -356.88,278.47 -35.73,81.06 -80.04,37.67 -137.92,116.06 75.24,28.31 33.74,-23.19 107.84,39.57 34.28,29.04 115.81,193.82 274.3,59.34 106.37,-90.26 29.43,-42.78 159.3,-95.41 81.82,-33.15 156.21,-188.06 317.23,-185.04 l -125.34,82.17 41.13,37.07 -45.8,59.8 c 8.57,61.7 28.55,137.95 72.39,186.29 50.1,55.19 81.25,31.48 146,25.99 135.05,-11.42 331.29,-27.65 404.57,73.8 -87.7,67.91 -387.56,69.29 -534.13,69.42 37.3,50.33 98.25,49.34 160.26,73.71 62.44,24.57 107.15,65.91 158.61,96.09 255.97,150.11 600.54,-107.04 864.38,-87.12 135.88,10.25 277.6,105.95 385.33,119.62 l -71.24,-117.16 c 84.28,-102.52 75.73,-55.8 155.46,-113.03 -92.59,-97.65 -303.1,96.24 -440.01,-375.33 -41.75,-143.82 32.36,-110.6 34.95,-240.49 -131.44,14.63 -13.91,-7.34 -92.21,77.1 -45.66,49.26 -83.75,34.75 -127.76,64.35 -119.14,80.11 36.66,115.9 -104.57,213.33 -79.09,-57.49 -60.71,-85.12 -170.2,-147.22 -145.79,-82.69 -125.07,-43.65 -222.55,17.29 l -114.03,-55.75 c -66.09,63.9 -28.94,58.48 -115.24,100.84 -47.55,-99.56 0.82,-89.24 -21.51,-186.88 -104.88,24.52 -198.02,115.61 -301.18,124.59 z M 13827.85,4893.61 c 97.1,105.06 258.41,393.09 424.72,389.2 0.02,-0.03 173.52,-337.27 98.95,-375.54 -118.93,-11.18 -115.76,5.03 -228.35,-91.08 -85.8,-73.26 -91.4,-132.44 -144.74,-234.04 l -314.98,-318.92 c -131.37,-140.88 -173.04,-241.5 -416.45,-241.73 324.59,300.38 332.57,522.17 435.95,638.23 74.43,83.55 133.11,102.91 144.9,233.88 z m -4668.3,-10631.41 172.11,-166.11 c 102.01,-138.14 392.39,-169.98 551.53,-215.19 120.4,-34.2 478.73,-106.43 524.1,-220.86 -157.18,-0.29 -194.09,21.28 -330.81,75.2 -149.48,58.97 -214.94,32.46 -347.76,42.06 -240.5,17.39 -398.54,152.68 -698.24,152.68 l 38.69,96.98 c -80.5,85.55 -169.57,159.86 -191.12,237.03 l 109.4,60.5 c -116.39,0 -165.26,-14.16 -241.16,78.7 -49.92,61.05 -98.78,132.6 -97.51,210.23 139.92,-64.54 161.23,11.99 170.26,122.8 71.6,7.07 106.13,26.68 172.57,32.22 3.77,0.31 67.33,1.55 71.86,1.32 34.77,-1.79 17.74,18.84 76.42,-31.76 -149.49,-121.95 -221,-190.97 -76.26,-360.74 41.98,-49.24 45.5,-80.35 95.92,-115.06 z m -6367.79,3010.84 -83.79,-64.85 110.63,-202.27 c -97.19,-2.72 -133.53,21.82 -198.95,-2.8 16.49,-178.72 92.75,-125.19 129.08,-269.95 -97.61,22.84 -155.8,89.89 -217.48,163.86 -126.87,152.2 -85.7,182.29 -58.17,269.18 20.52,64.74 -73.19,143.09 77.49,215.04 70.19,33.52 76.13,-7.74 127.57,63.78 40.14,55.76 29.65,113.06 22.02,175.68 l -129.18,84.04 c -28.12,156.1 -54.18,55.79 -42.92,134.28 73.02,27.89 79,1.6 141.64,29.77 31.04,13.96 19.12,12.82 37.85,28.97 -79.63,102.04 -175.79,79.43 -238.49,164.33 94.68,35.45 233.09,-41.46 430.97,-41.17 326.1,0.47 295.93,-221.17 294.94,-223.43 -73.81,-71.97 -83.43,-25.2 -141.15,-92.93 -47.27,-55.45 -23.99,-89.64 -52.99,-154.44 -56.66,-126.61 -142.16,-179.45 -209.07,-277.09 z m 1785.55,-4319 c -113.59,0.09 -254.17,20.36 -318.99,96.71 74.74,50.69 13.54,-9.4 111.24,0 53.85,156.05 -97.03,120.07 -136.45,214.76 14.8,12.66 7.82,47 123.55,36.19 47.1,-67.03 -6.09,9.1 27.05,-60.51 50.04,56.96 68.46,66.31 152.42,88.39 107.8,-78.95 201.42,-176.78 319,-79.5 -75.17,100.25 -120.06,77.79 -209.59,147.14 77.88,34.88 62.6,-15.51 141.38,39.75 1.79,106.98 -88.1,87.47 -166.58,140.01 147.8,34.55 147.73,114.98 258.16,124.58 102.09,-70.23 127.44,-306.56 301.18,-415.29 107.97,9.4 132.3,93.49 209.61,64.07 l -37.5,143.58 c 120.86,0 167.03,5.42 279.66,-20.77 -38.89,-99.44 -311.74,-198.78 -383.54,-211.2 l -12.34,-87.35 c -85.65,-28.02 -93.15,-5.73 -120.43,-75.2 15.31,-13.12 6.42,-15.74 35.92,-27.96 113.7,-47.08 288.55,26.79 400.38,40.84 100.46,12.61 350.72,-91.07 381.19,-199.77 -144.81,-2.96 -268.52,-62.58 -430.25,-62.29 l -24.13,39.01 c -9.5,16.12 -10.22,19.6 -22.98,39.92 -22.81,36.34 -36.92,53.86 -67.84,83.62 -36.67,-76.7 5.23,-80.76 -111.96,-109.66 -61.72,-15.21 -168.51,-29.48 -208.88,-16.7 -5.44,38.32 21.52,59.94 52.23,109.16 -39.82,63.13 -72.13,97.48 -127.23,119.25 -91.31,-54.98 -57.16,-81.06 -193.61,-134.67 -115.9,63.86 -199.87,180.88 -324.54,91.36 54.83,-68.48 74.56,-12.91 103.87,-117.47 z M 7804.24,7779.88 c 370.2,0.67 312.67,-248.84 444.37,-735.6 34.84,-128.78 61.25,-262.47 102.37,-397.8 51.31,-168.87 48.11,-339.73 -51.95,-486.24 -53.82,40.79 -32.42,222.67 -223.33,345.08 -148.69,95.32 -289.59,123.26 -313.37,320.59 -13.37,111.08 27.91,196.46 10.07,277.84 -43.41,197.79 -235.34,162.75 31.84,676.13 z m 11186.69,-1889.56 82.42,-1.26 c -12.57,-75.48 -54.71,-72.29 -103.93,-144.11 -61.96,-39.55 -78.64,-57.58 -112.26,-120.05 -58.72,-109.12 -17.53,-107.02 -54.32,-196.75 -116.09,-181.2 -840.58,-510.99 -1061.5,-536.32 -83.93,61.5 -122.2,120.81 -234.79,147.14 -154.5,-96.68 -103.46,-179.02 -121.71,-235.53 l -136.44,-55.18 c -112.75,-2.3 -81.29,-40.34 -172.11,0 36.85,92.94 131.82,89.73 215.12,145.35 -43.36,110.9 -99.19,47.56 -64.53,186.89 245.77,-21.13 195.7,-20.2 473,145.62 298.81,178.68 81.49,314.04 64.83,373.49 230.18,-0.41 264.64,74.57 400.28,112.36 236.52,65.9 145.67,-52.14 286.28,-114.49 225.57,-100.05 301.89,175.33 329.42,205.05 50.58,54.6 139.52,40.43 210.24,87.79 z M 15441.31,3917.69 c -85.73,125.07 -168.55,146.07 -202.33,178.81 l -131.6,121.81 c -101.8,82.27 -137.93,42.44 -197.44,141.66 -71.71,119.59 -87.82,93.29 -207.45,132 -92.85,228.89 211.1,576.02 308.57,588.53 122.57,0 141.98,-8.18 256.23,24.63 45.91,13.19 36.72,40.93 168.9,-29.45 3.59,-1.93 10.51,-6.34 13.39,-7.94 2.85,-1.58 8.96,-5.14 13.25,-8.01 0.11,-62.45 -20.68,-129.25 -9.68,-175.8 12.67,-53.82 59.55,-88.79 89.06,-142.1 90,-162.53 42.55,-132.81 194.74,-248.08 -63.89,-108.09 -33.81,-73.83 -73.13,-188.66 l -114.94,-55.17 c 26.11,-93.1 134.51,-149.12 195.46,-226.63 l -36.72,-30.06 c -3.05,-2.51 -8.81,-6.69 -12.15,-9.48 -17.13,-14.34 -28.99,-24.79 -44.77,-39.86 -39.42,-37.68 -54.08,-58.01 -101.82,-88.5 -75.67,19.78 -42.8,20.93 -107.57,62.3 z m -19541.84,-7775.4 c -281.35,-85.52 -241.16,-198.75 -47.31,-79.94 30.63,18.77 61.53,43.65 66.91,80.36 z m -2070.09,-1627.61 c -19.87,-230.63 35.71,-54.25 23.18,53.81 -17.09,5.03 -21.99,-45.43 -23.18,-53.81 z m 2559.15,908.28 c -112.95,-72.84 -83.7,7.76 -268.83,-132.91 -108.97,-82.8 -388.98,-50.47 -306.02,-250.36 90.67,-218.47 -506.25,-204.69 -412.36,-327.93 111.87,-146.88 -97.37,70.39 -352.87,-144.61 -378.73,-318.69 -467.97,315.84 -764.97,-201.62 -115.64,-201.47 -335.14,-67.36 -310.08,279.65 16.48,228.28 -135.44,33.81 -105.17,-22.13 160.75,-297.13 -280.25,-452.21 -432.95,-164.04 -228.39,431.02 858.64,436.94 1054.63,462.64 778.58,102.09 595.39,294.38 641,317.26 73.06,36.68 59.62,-88.41 154.4,135.43 59.97,141.64 361.04,62.44 198.31,193.72 -97.92,78.99 -246.67,-248.97 -370.39,104.04 -36.37,103.8 -502.23,74.37 -417.76,198.45 66.69,97.96 298.06,-114.89 675.26,191.23 31.14,25.28 95.09,45.63 132.67,59.54 0.61,138.79 213.33,54.41 420.32,171.64 339.49,192.28 14.92,-56.71 61.96,-87.27 112.01,-72.75 154.25,-63.31 81.82,-223.82 -37.74,-83.59 -450.41,-423.53 -209.23,-474.34 159.79,-33.66 375.13,352.24 448.76,133.79 54.45,-161.55 267.69,-91.27 81.5,-218.36 z M -6029.16,-6489.5 c 60.15,36.79 -70.85,-13.99 0,0 z m -17,-53.87 c -4.15,-1.37 -1.11,-3.02 0,0 z m -39.39,60.09 c 9.13,100.74 -258.62,-168.31 -32.23,-27.62 13.02,8.09 24.58,14.43 32.23,27.62 z m -5.73,-100.63 c -9.04,-2.02 -3.21,-0.72 0,0 z m -34.94,-16.48 z m 822.01,-677.71 c -7.08,-20.13 11.6,13.83 0,0 z m 45.46,-61.3 c 23.87,12.25 -21.19,1.92 0,0 z m 952.43,-3.69 c 144.31,-80.74 -39.09,125.27 -8.64,10.34 z m -2438.75,-144.32 c -27.95,10.58 176.71,77.94 226.46,102.78 489,244.05 1055.4,41.83 1096.51,56.24 -5.19,53.95 -212.91,81.6 -15.63,110.75 116.85,17.28 -582.12,120.97 -608.84,150.33 -88.99,97.82 504.47,338.73 66.95,315.32 -536.83,-28.72 -107.81,-346.63 -803.47,-516.82 -202.28,-49.48 -106.93,46.2 -240.63,125.7 -384.55,228.63 542.66,223.59 139.74,349.36 -83.87,26.18 -49.7,169.4 263.15,129.17 654.14,-84.12 258.04,90.77 272.96,169.93 33.17,176.07 21.21,24.77 -119.47,106.91 35.45,136.36 625.23,66.1 828.02,143.71 1.8,0.69 559.4,-93.66 187.53,-152.07 -66.43,-10.43 -396,-116.95 -126.7,-116.41 222.1,0.44 765.76,-219.34 449.16,-271.24 -212.01,-34.75 151.29,-217.75 290.78,-206.47 278.67,22.56 296.69,-75.23 558.33,-197.99 137.31,-64.43 211.03,-97.11 331.94,-186.28 -317.75,-92.94 6.64,56.64 -253.27,72.51 -100.54,6.13 140.86,-60.48 -20.36,-76.29 0.3,-38.44 530.27,-237.69 624.34,-290.62 -268.36,-304.62 -507.3,1.32 -605.37,-178.84 -54.36,-99.84 -572.49,-63.51 -735.27,-71.65 -1199.81,-59.96 -553.67,127.84 -1141.78,278.4 -226.87,58.09 -419.3,87.99 -638.4,146.45 z m 24267.6,16466.3 c 138.06,-83.13 105.33,-262.22 236.64,-259.27 73.31,97.45 -47.66,156.56 -31.95,304.35 189.01,-144.64 114.4,-2.63 161.18,78.79 25.57,44.52 194.26,346.78 241.01,363.64 175.01,63.16 230.92,-3.44 366.76,-44.94 330.29,316.54 87.46,17.21 439.25,-34.57 144.54,-21.28 136.29,-219.52 199.65,-378.95 202.58,-509.75 226.73,-644.75 277.56,-1201.94 12.99,-142.4 -65.28,-123.25 -220.03,-220.77 -77.29,-54.64 -242.78,-312.83 -297.26,-398.3 -42.08,-65.99 -207.86,-77.43 -286.51,-408.69 -23.24,-97.87 -17.3,-221.32 -49.6,-305.12 -48.4,-125.59 -112.03,-85.21 -179.6,-325.01 l -31.74,-93.93 c -26,-54.69 -4.87,-12.75 -23.86,-39.28 -131.95,40.4 -119.08,392.33 -200.26,591 -120.75,295.43 -67.38,318.44 -348.76,128.41 -455.68,-307.74 -173.53,-311.87 -167.63,-673.27 -73.48,45.5 -102.65,-17.93 -264.11,-35.57 -228.73,-25 -106.67,-66.75 -314,148.73 -235.79,245.06 103.79,423.34 -485.39,240.93 -202.82,-62.8 -257.56,331.67 -386.13,301.2 -55.25,-13.1 -88.72,188.26 -279.7,313.18 -313.55,205.11 -704.19,300.99 -689.42,742 9.99,298.18 -214.15,-207.79 40.76,386.55 148.6,346.48 111.44,398.36 152.25,741.6 9.12,76.69 152.15,125.37 216.96,161.85 245.86,-147.53 269.82,-162.51 547.55,-212.89 166.73,-30.22 181.06,-159.71 506.25,-212.83 400.44,-65.4 611.22,-95.18 836.68,295.2 z M 183.17,-5420.99 l 31.08,71.98 -87.08,-12 c 35.33,-86.25 7.42,-47.15 56,-59.98 z m -3393.5,-1957.21 c -8.2,5.5 -38.8,49.93 -110.49,24.21 -32.03,-11.49 -23.98,-13.42 -40.1,-24.21 l 44.02,-80.66 c 69.85,0.98 67.19,2.24 122.55,44.48 z m -2409.44,6644.64 c -59.52,51.26 -82.3,75.53 -172.11,83.06 47.03,-68.59 67.35,-84.36 150.59,-103.82 55.26,-74.84 427.63,-241.55 516.31,-249.17 -59.59,87.63 -152.1,88.65 -232.41,127.33 -92.63,44.6 -169.54,97.59 -262.38,142.6 z m 61.48,2055.55 -40.3,97.67 c -29.41,12.83 -55.2,28.29 -77.66,44.64 -40.59,-37.09 -61.21,-95.73 -86.61,-170.18 -115.21,-337.78 -14.56,-365.13 -435.65,-410.1 -167.06,-17.83 -205.86,-63.93 -328.5,85.11 30.72,49.23 57.69,70.85 52.26,109.16 -94.91,15.49 -255.78,-30.29 -374.72,-65.61 -210.77,-62.59 -546.89,88.47 -545.75,294.55 1.55,279.93 -152.64,349.86 30.7,760.59 108.1,242.18 186.51,336.42 496.48,293.73 209.46,-28.84 175.63,-110.81 215.64,-271.14 112.72,-71.99 191.29,-160.66 365.72,-83.05 54.77,136.29 -167.53,487.83 -114.94,650.81 64.35,20.73 170.22,20.74 268.89,29.05 61.07,54.44 142.47,88.72 231.92,89.14 88.37,156.21 -158.6,342.56 106.54,645.31 149.38,170.57 277.56,-10.68 463.82,50.31 59.41,19.46 106.91,85.59 183.96,134.23 59.61,-87.27 76.86,-211.77 129.08,-290.69 91.04,-40.16 131.49,-13.63 210.54,-87.48 71.08,-66.44 65.96,-90.12 176.69,-99.41 -58.04,110.59 -130.64,213.18 -37.64,330.06 l 80.66,2.18 c -40.74,-113.11 7.91,41.69 -78,-47.98 -32.75,-34.2 -28.62,-74.95 -29.57,-118.14 103.35,27.15 29.61,17.46 93.43,100.27 82.79,-186.5 -72.41,68.29 107.53,-197.01 3.33,-4.89 14.2,-21.91 16.66,-25.45 l 19.04,-23.16 c 49.17,17.44 16.83,3.29 51.25,33.57 179.17,157.67 211.03,57.73 319.58,125.98 150.44,94.57 301.74,4.64 454.03,20.21 65.35,188.09 137.15,219.26 277.67,354.91 223.4,215.62 226.31,221.98 456.68,227.52 75.77,1.84 255.12,101.66 329.26,176.7 154.67,156.53 26.74,213.23 214.25,395.38 -181.4,109.08 -210.71,165.57 -317.17,368.41 168.57,-14.66 232.96,-204.37 408.75,-207.63 -0.21,230.32 -113.99,94.65 -216.97,226.62 17.87,15.06 8.11,15.65 37.63,29.5 l 149.82,6.88 c 131.07,-38.28 163.3,-281.36 381.51,-146.05 35.04,21.74 38.85,30.94 67.67,59.39 23.11,22.82 34.37,34.67 53.67,52.02 24.88,22.35 75.56,70.39 121.77,90.23 69.1,29.66 468.75,60.47 503.33,74.99 81.26,34.12 47.67,37.56 111.04,100.17 56.96,56.27 107.57,68.51 167.2,108.55 3.74,2.5 8.82,6.14 12.45,8.76 3.6,2.59 8.5,6.47 11.99,9.18 332.29,257.21 -247.27,803.87 -301.29,898.14 -86.06,150.23 40.38,516.66 -174.79,973.34 -22.66,48.11 -40.68,115.07 -68.82,162.02 -114,190.11 -252.45,49.39 -420.78,175.26 -50.4,37.69 -48.45,64.6 -106.87,87.53 l -371.58,239.66 c -0.57,289.69 164.11,86.58 -182.5,716.73 -103.73,188.62 -277.96,445.93 -527.43,466.85 -45.23,-3.96 -114.69,-70.12 -190.8,-86.74 -263.45,7.21 597.01,420.2 -274.63,572.28 -324.03,56.55 -70.49,211.25 -504.21,318.61 -34.75,218.85 165.57,162.57 2.03,276.38 -118.97,82.78 18.86,183.73 -161.68,279.13 -171.47,90.61 -118,274.59 53.78,372.11 73.44,41.69 -129.12,223.04 -184.78,338.19 l -11.84,24.48 c -47.09,93.58 -132.71,94.67 -140.54,242.06 -12.69,239.55 5.54,-21.82 -133.73,199.19 -32.49,51.53 -66.21,94.75 -111.93,123.95 -43.98,-79.75 44.12,-89.05 -113.74,-201.73 -135.48,-96.71 -144.89,-37.75 -207.12,-69.99 24.38,-85.95 28.69,-23.18 43.61,-125.41 13.78,-131.09 -48.41,-377.18 82.19,-354.35 200.24,34.98 -200.3,-320.72 -201.84,-326.31 -26.76,-97.18 24.54,-131.85 112.66,-14.58 33.3,44.29 77.29,-104.96 81.97,-123.64 67.23,-268.17 -33.18,-529.06 -3.94,-851.53 43.25,-477.26 237.48,-770.56 271.49,-1313.43 9.06,-144.73 95.77,-1195.28 87.2,-1270.03 -36.42,-317.52 -591.33,-327.09 -759.1,-904.17 -50.4,-173.3 -85.57,-266.3 -158.65,-433.89 -68.23,-142.71 -168.88,-356.92 -216.94,-485.9 l 145.04,-129.93 c -19.78,-52.01 -80.68,-104.85 -127.21,-129.93 64.4,-86.25 34.26,-114.65 57.96,-190.05 87.63,-278.88 230.26,-358.22 303.66,-512.8 69.54,-146.48 28.2,-434.79 -27.85,-548.49 -130.2,-264.22 -267.8,-34.95 -290.76,-28.93 -81.66,-9.37 -67.43,-21.12 -136.15,-38.36 -245.67,-61.62 -138.43,-12.4 -279.98,-186.5 -84.33,10.44 -56.68,43.12 -129.07,20.77 -24.9,-133.89 3.69,-204.29 -178.62,-356.34 -1.8,-1.49 -6.33,-5.44 -8.19,-7.11 -122.65,-109.66 -235.42,-72.68 -582.77,-284.96 -460.94,-281.71 -187.28,2.48 -546.47,-137 -167.62,-65.07 -339.89,-143.94 -502.75,-241.49 -487.94,-292.29 -221.32,-173.28 -318.91,-439.71 -85.12,-177.53 -270.34,-343.98 -395.16,-545.12 -41.48,-66.86 -416.42,-648.67 -439.63,-659.18 -176.95,-80.1 41.33,413.21 49,427.94 30.14,57.8 283.45,506.24 347.86,544.28 174.66,103.12 -134.84,121.22 -259.26,-183.65 -85.66,-209.92 -202.75,-177.87 -231.97,-384.88 -15.46,-109.6 -255.84,-610.26 -386.52,-687.67 -523.07,-309.83 -779.89,-1242.45 -607,-1811.4 49.06,-161.45 305.65,-124.1 -41.34,-446.27 -192.18,-178.43 -312.35,-146.47 -389.32,-345.16 -14.81,-38.25 -80.92,-61.7 -144.46,-193.64 -211.02,-438.04 55.44,-222.96 -427.8,-672.89 -276.45,-257.39 -374.12,-233.47 -746.65,-338.83 -284.95,-80.61 -410.41,-100.01 -683,-224.62 -248.81,-113.74 -212.61,263.91 -391.74,212.34 -132.85,-38.25 122.96,-278.52 -65.54,-225.04 -124.42,35.28 -266.1,419.18 -544.77,606.16 -185.53,124.5 -471.66,289.45 -690.01,323.3 146.89,-163.29 613.84,-188.65 585.07,-561.28 -235.94,-35.6 -282.31,66.95 -512.4,-158.53 -46.59,-45.62 -285.43,14.44 -346.65,-252.76 -65.39,-285.38 473.05,-203.49 471.74,-496.2 -0.87,-192.96 -101.25,-22.25 -245.98,-2.39 -124.02,9.19 -192.47,-21.42 -301.83,-21.52 -0.18,-202.05 -66.69,-94.02 -150.59,-207.63 148.86,-66.51 240.8,-133 396.34,-71.18 90.1,35.81 282.81,97.19 265.02,-89.6 -90.38,-63.63 -115.51,-5.62 -299.27,-147.18 -90.25,-69.51 -164.18,-105.68 -234.85,-188.61 l 80.38,-50.83 c 197.51,-106.79 128.37,-15.83 237.1,-82.35 49.78,-30.46 61.74,-70.85 105.73,-105.58 39.29,-31.02 94.03,-55.83 140.58,-71.96 91.89,-31.85 90.2,-12.75 159.63,-76.01 109.32,-99.6 -22.85,1.49 123.28,-44.17 86.03,-26.88 52.26,-54.78 161.2,-43.68 97.03,9.9 48.07,36.61 155.63,-30.05 133.37,102.71 87.7,45.08 232.38,70.9 75.38,13.47 116.77,58.32 174.05,101.97 94.9,-11.61 130.6,-56.65 225.48,-32.59 101.02,25.6 98.13,48.99 228.54,51.47 472.58,9.03 371.81,74.28 643.13,96.07 105,8.41 569.49,161.58 588.7,188.92 40.02,97.62 5.35,240.49 166.58,254.51 0,-102.31 1.79,-130.57 -25.3,-224.76 -16.18,-56.12 -47.49,-111.23 -55.24,-167.98 184.04,94.61 211.97,-66.55 424.74,-84.84 -85.35,124.52 -164.23,80.43 -236.65,186.88 l 133.55,-15.39 -69,56.91 c 114.09,-9.92 330.4,-163.32 440.95,-218.41 108.07,-53.83 120.69,-51.55 241.16,-3.7 228.04,90.62 275.07,-95.84 733.92,122.03 267.7,127.1 192.97,-96.23 400.03,50.21 37.38,26.44 15.59,13.35 35.89,30.9 -49.6,58.2 -85.78,53.22 -103.88,117.46 96.4,67.85 313.42,37.85 420.73,39.42 266.28,3.89 239.45,209.57 364.18,230.53 59.25,-78.7 6.57,-92.77 34.39,-174.46 21.05,-61.8 50.76,-48.04 100.22,-90.14 -74.74,-1.53 -98.35,0.34 -172.1,-62.31 33.05,-75.64 -18.37,-7.01 64.54,-62.29 486.1,-41.36 139.55,96.38 640.06,172.02 l 327.39,-25.62 c 288.98,-70.21 79.25,-99.65 323.32,-42.57 l -17.83,-34.41 c 55.06,-53.85 105.66,-82.12 125.38,-152.47 -119.87,76.55 -152,111.08 -301.18,145.34 -2.97,-4.18 -5.94,-10.66 -7.64,-13.37 l -56.88,-69.68 c -39.88,-37.04 -23.33,-13.27 -44.88,-64.07 l 86.9,-107.98 108.56,26.7 c 96.49,82.79 209.11,30.53 322.7,20.76 -92.77,-56.51 -156.02,19.6 -186.78,-111.74 -27.45,-117.24 121.07,-350.42 349.97,-127.13 68.09,66.41 66.21,100.35 5.22,197.35 250.42,113.17 109.05,105.44 197.29,228.4 132.89,-30.7 92.29,-105.8 215.14,-166.11 101.38,93.8 78.91,95.07 111.12,226.66 l 34.54,93.53 c 22.73,49.59 25.01,46.17 69.47,74.33 55.83,-35.65 50.43,-33.53 83.69,-85.34 177.64,-276.75 77.63,-48.52 92.11,-305.63 129.97,-41.23 254.62,-6.67 358.33,107.39 -107.51,206.3 31.07,151.09 46.72,325.11 l -22.89,19.45 c -4.2,3.25 -19.3,14.46 -24.3,18.06 -97.81,70.4 -80.19,50.25 -157.57,76.33 -131.14,44.21 -149.44,31.51 -290.05,31.51 85.17,177.6 111.69,172.63 291.92,237.36 97.45,34.98 264.13,142.12 253.29,247.34 -105.14,31.95 -139.16,-44.89 -244.03,-69.41 l -172.1,166.12 c -45.11,-10.37 -86.63,-19.76 -129.08,-41.52 -20.99,-10.77 -34.14,-20.42 -51.58,-33.26 -29.1,-21.41 -20.3,-16.87 -34.46,-29.04 37.37,-86.3 -14.48,-1.29 80.52,-67.63 17.42,-142.76 34.72,-268.24 -87.55,-299.36 -35.6,-9.07 -60.87,-7.88 -100.33,-8.46 -107.6,-1.59 -121.89,-0.06 -174.14,45 70.49,82.45 97.26,11.89 232.95,107.38 -10.97,60.85 -67.16,107.05 -131.43,133.17 -157.41,63.99 -251.58,-53.72 -319.44,147.73 -32.49,96.45 -51.9,75.36 -102.95,149.81 -68.38,47.05 -233.72,262.69 -262.92,349.85 -28.57,85.31 -21.71,50.52 2.54,128.17 81.54,260.96 185.36,28.77 247.59,198.8 22.05,60.18 -0.6,-4 11.29,51.41 35.37,164.8 40.55,92.92 177.22,140.4 l 311.81,176.62 c 76.65,40.81 146.72,72.15 226.18,93.15 99.03,26.18 203.23,12.86 275.88,45.18 46.23,115.05 -81.07,258.98 42.18,395.34 71.66,79.29 165.7,164.39 278.83,225.54 l 87.75,-18.72 c 114.56,-456.36 27.75,-187.08 78.7,-522.34 36.7,-241.44 289.15,-172.9 -17.85,-661.23 101.56,-161.54 92.67,-243 65.12,-350.29 -20.6,-80.17 49.19,-223.58 116.2,-288.07 141.79,-16.11 354.04,-18.23 462.56,61.96 156.5,115.63 -36.54,34.98 306.36,202.65 -3.62,165.68 -120.34,112.1 -44.47,249.47 31.22,56.53 100.63,128.27 159.42,162.25 81.53,-55.4 20.41,-58.08 124.78,-51.53 169.4,10.62 119.98,-84.86 317.77,-195.86 15.29,16.63 14,10.86 30.54,36.02 l 36.2,90.04 c 41.87,150.14 35.78,80.08 77.69,183.81 40.24,99.59 66.21,62.6 101.23,141.8 85.66,193.57 -14.07,135.95 401.57,339.16 82.9,55.28 31.48,-13.37 64.55,62.29 -22.18,11.45 3.47,2.66 -26.73,9.82 -64.94,15.41 -62.51,0.3 -124.16,31.1 -53.51,26.75 -92.4,72.16 -107.27,125.19 201.06,47.1 181.25,-78.66 430.27,-20.76 114.04,456.97 -156.06,266.87 -408.76,436.05 -122.2,10.4 -197.6,19.8 -344.9,20.1 -275.75,0.58 -374.26,62.64 -568.49,219.58 -74.74,60.37 -153,114.23 -162.26,217.14 171.57,-3.18 242.92,-256.08 579.19,-225.15 l 41,72.68 c -59.2,57.7 -111.83,51.27 -189.93,69.42 47.97,191.11 148.53,231.22 297.5,211.2 32.27,311.55 217.96,-70.83 369.41,-3.55 -37.95,133.74 -23.03,-11.88 -134.55,97.21 -68.83,67.35 -61.67,66.4 -148.61,107.06 -185.06,86.57 -275.6,183.07 -340.72,190.25 4.42,-201.82 151.33,-184.52 215.12,-269.94 -112.03,-49.85 -299.27,47.55 -421.93,113.16 -95.55,51.1 -238.84,24.36 -326.21,204.4 -26.6,54.8 -15.37,75.64 8.37,125.82 117.83,248.89 -323.18,-80.03 -486.45,574.07 -95.4,-133.76 -13.66,-135.95 -129.08,-166.11 -18.71,74.97 -29.83,121.09 -22.26,208.04 6.73,77.27 56.35,124.9 52.95,161.74 -13.19,142.52 -435.23,548.24 -591.86,749.73 37.93,135.09 111.15,374.74 149.37,562.28 z m 3.04,-2616.19 40.18,-47.68 c 62.4,50.3 41.44,14.77 42.2,85.66 -72.11,-0.73 -38.48,21.16 -82.38,-37.98 z m -1118.67,-124.58 z m 0,0 c 239.9,-159.37 306.93,-313.23 508.92,-96.68 62.38,66.89 92.67,151.06 140.12,196.99 131.02,126.77 330.9,49.56 444.43,183.28 -58.06,41.69 -84.69,22.66 -120.49,96.22 -32.43,66.65 1.6,66.65 -42.38,133.96 -72.17,-88.12 -27.53,-119.17 -154.28,-145.35 54.77,-134.05 -103.91,-269.38 -191.47,-158.58 -138.01,174.63 -119.77,408.65 -181.63,490.81 -2.7,-3.03 -7.64,-11.34 -8.47,-8.73 l -39.94,-334.43 c -11.51,-113.3 112.59,-168.3 226.05,-170.61 -2.62,-131.67 -107.45,-136.63 -219.88,-161.54 -136.21,-30.19 -216.54,-25.34 -360.98,-25.34 z m 1419.87,-62.31 c 31.75,-11.94 38.86,-14.97 62.73,-16.17 90.34,-4.49 94.21,29.21 39.29,93.9 -79.32,-9.59 -65.68,-9.32 -102.02,-77.73 z m -1222.56,-370.19 c 75.63,2.76 79.62,-8.48 41.2,60.51 -52,-22.08 -37.99,34.13 -41.2,-60.51 z m -692.1,-2910.58 -38.94,21.67 z m 21.51,-20.77 -21.51,20.77 z m -107.55,0 z m -1183.21,20.77 c -20,-70.96 -14.12,-41.65 -57.85,-68.77 l -28.19,-14.3 c 124.03,2.53 104.93,20.87 129.07,41.54 -18.07,65.12 14.84,19.8 -43.03,41.53 z m -2753.65,-83.07 z m 4044.41,62.3 c 31.35,-59.7 30.75,-86.54 86.06,-124.59 -6.71,71.91 -23.59,101.52 -86.06,124.59 z m -3958.35,-83.07 -38.96,21.69 z m -86.06,-20.76 v 41.53 c -34.06,-35.89 -34.06,-5.63 0,-41.53 z m 21.51,-20.76 -21.51,20.76 z m 4108.96,0 21.52,-124.59 c 29.49,43.16 20.2,1.63 23.35,84.84 z m 15013.17,247.85 c -175.91,365.53 747.55,-322.01 895.8,-174.47 101.52,101.02 208.76,29.71 352.38,-37.72 l 177.8,-83.48 c -7.06,44.31 -71,185.17 92.86,115.57 152.21,-64.64 168.33,-201 460.87,-145.68 397.07,75.07 509.79,313.87 403.67,-94.32 -71.45,-274.9 -50.7,-344.96 168.77,-504.07 401.68,-180.22 441.06,1007.96 76.13,1015.21 -316.28,29.8 -77.73,204.01 200.51,59.48 229.73,-165.42 405.43,-530.13 534.94,-175.44 85.12,233.13 300.04,68.39 32.18,-200.1 -89.98,-90.21 -478.18,-172.75 -383.74,-423.09 98.79,-261.93 603.58,178.48 325.41,-131.24 -102.82,-114.5 294.11,-132.23 577.89,162.13 132.96,137.94 167.09,-11.82 -46.06,-222.16 -353.83,-349.13 602.49,-140.21 488.18,-350.72 -126.05,-232.11 287.61,-216.5 435.31,-236.07 261.7,-34.69 337.14,-112.66 608.52,-61.16 178.08,33.79 197.63,-71.12 409.61,-90.18 194.28,-1.7 107.59,53.7 188.33,-4.6 3.83,-127.57 -57.04,-163.1 99.21,-278.04 89,-65.48 195.58,-60.97 272.83,4.85 l -104.66,84.53 c 70.06,54.25 58.19,28.37 105.97,42.85 53.17,16.13 97.86,113.01 377.71,60.15 397.91,-75.13 207.02,49.25 459.2,49.47 -19.18,67.59 -28.61,38.89 -35.6,86.4 -8.02,54.45 10.9,16.85 8.54,95.14 -156.56,153.24 -243.33,69.84 -412.46,183.29 -95.46,64.03 -298.31,161.26 -350.93,242.68 87.64,53.22 192.88,44.8 296.59,16.34 85.15,-23.38 165.31,-66.45 232.01,-97.62 -52.76,-51.59 -82.34,-56.65 -103.88,-110.94 h 193.63 c -106.08,-71.02 -97.37,-13.56 -172.1,-41.53 54.81,-73.96 197.22,-69.31 279.65,-62.29 28.47,115.42 57.6,160.97 134.62,247.38 97.14,-49.94 92.89,-60.07 208.55,-61.53 459.88,3.39 162.19,93.05 540.65,124.08 181.46,14.88 605.35,-201.54 773.21,-1.74 24.21,28.82 -199.96,132.86 160.42,343.82 233.97,136.97 279.96,-39.5 585,-28.04 160.72,6.04 399.1,73.54 486.96,-57.52 141.53,-211.14 676.54,-198.08 621.72,-64.47 -47.87,116.67 298.87,-137.89 464.16,46.47 257.06,286.74 585.51,128.61 967.13,162.88 135.18,57.73 -33.15,208.93 311.01,240.04 112.54,10.17 227.51,0.91 340.79,2.95 359.82,6.47 364.68,125.26 558.47,125.42 41.46,-86.81 0.08,-157.06 0,-249.16 91.71,21.06 160.2,51.28 259.72,62.15 267.86,29.25 342.56,2.72 668.31,101.09 175.9,53.12 513.67,180.81 616.5,339.33 52.81,81.42 -1.42,107.77 67.5,162.56 23.12,18.36 7.37,6.97 38.92,14.75 51.52,-68.19 22.9,-100.34 51.21,-122 80.09,-61.29 355.85,84.28 400.56,153.44 -80.75,134.61 -144.38,23.64 -252.62,181.55 -35.49,49.38 -55.32,75.34 -23.35,140.01 -128.51,2.78 -134.26,-84.2 -253.8,-121.34 -91.07,-28.29 -21.57,28.28 -94,-53.28 -110.65,-124.66 -151.02,-56.51 -274.24,-27.69 l -48.74,-77.54 c -44.04,-87.86 16.08,-38.75 -58.82,-67.81 l -50.85,117.03 c -69.14,237.23 -168.56,102.92 -334.03,96.45 -24.07,-0.94 -14.79,-1.01 -39.93,3.38 l -26.96,11.55 c 14.57,156.15 114.35,75.02 198.65,182.01 50.27,63.79 98.24,172.68 86.55,238.61 -91.14,82.81 -138.21,-19.84 -295.06,27.31 -70.59,21.22 -52.36,28.69 -115.76,42.63 -64.39,14.16 -59.24,13.79 -118.54,41.94 -43.21,20.52 -88.07,40.1 -126.74,65.41 -71.1,46.51 -247.8,175.66 -317.06,169.92 -103.98,-25.51 -100.25,-92.38 -226.09,-69.34 l -258.94,58.16 c -51.86,27.72 -56.83,53.04 -124.23,63.82 -44.22,7.07 -59.74,-6.27 -101.69,28.64 l -82.57,108.89 c -90.27,186.24 -13.78,87.75 -9.77,277.55 1.64,77.61 22.87,20.38 51.28,116.39 -238.64,136.45 -100.89,148.29 -145.01,273.54 -176.09,26.27 -206.39,68.14 -227.22,259.15 -85.66,63.65 -93.82,31.5 -167.37,129.14 -44.86,59.57 -74.43,126.1 -150.21,145.74 -2.09,-95.71 -51.24,-194.21 -70.46,-305.76 -16.37,-95.04 -26.22,-191.22 -23.74,-278.33 9.2,-324.52 187.32,-378.63 261.57,-437.96 156.13,-124.73 237.59,-236.55 387.92,-352.31 78.4,-60.34 140.86,-70.97 214.65,-145.82 35.83,-36.34 193.28,-276.07 28.81,-224.37 -86.79,27.28 -92.01,89.3 -124.47,173.56 -128.18,45.98 -208.08,138.36 -287.04,159.01 2.88,-131.61 37.02,-89.85 64.54,-186.89 -20.52,-17.56 12.81,-8.44 -45.65,-29.24 -123.67,-43.99 -257.13,27.12 -362.84,91.8 -132.52,81.12 -258.71,176.4 -258.42,331.96 -443.79,0 -357.97,-73.16 -473.28,-83.05 -100.93,8.77 -39.41,16.55 -130.33,40.33 -572.86,118.42 -334.9,-290.98 -1112.03,383.98 -123.74,107.49 -235.11,208.58 -328.07,343.98 123.34,78.46 97.29,14.71 199.15,140.01 138.32,15.71 140.81,16.55 245.25,-53.4 114.95,52.7 146.35,83.93 163.55,219.27 l -9.67,230.24 c -29.95,95.35 -2.18,80.36 -73.47,281.89 -90.18,242.22 -518.9,992.29 -778.71,881.3 -143,-61.09 -381.39,269.94 -489.12,388.65 -174.48,192.24 -20.92,130.09 56.28,454.54 53.74,225.77 -32.49,262.62 -227.18,288.23 -27.94,-517.05 -57.52,-219.68 -164.29,-425.39 -41.84,-80.61 94.51,-120.8 -21.53,-196.36 -184.48,-120.13 -253.24,15.45 -384.44,95.49 28.59,-131.3 200.34,-418.25 -168.99,-183.38 -95.72,60.87 -197.83,137.53 -239.96,246.05 265.86,306.64 794.63,-12.91 431.46,204.69 -410.34,245.86 -181.75,321.76 -25.09,621.7 -189.24,124.27 -133.54,97.25 2.06,149.63 -62.28,141.42 -175.92,34.68 23.39,205.88 -39.67,161.67 -341.77,582 -463.47,690.78 -79.65,71.2 -124.45,102.19 -219.57,148.17 -88.84,33.11 -168.02,25.52 -248.13,51.52 -91.3,29.62 -24.79,33.9 -176.3,77.02 -171.01,48.68 -65.36,26 -184.87,118.44 -142.71,-110.09 -118.29,-147.95 -339.13,62.74 -187.97,222.41 35.52,255.15 180.26,534.27 l 49.25,106.48 c 54.37,145.21 42.03,320.85 61.01,471.09 l -209.54,170.62 c -346.98,249.16 -145.31,161.78 -328.86,-67.88 -130.54,-163.35 -77.53,-266.95 -314.5,-263.05 -185.79,3.05 -166.27,110.57 -218.33,306.03 -34.55,129.64 42.89,136.18 118.16,275.73 178.12,330.19 312.28,257.05 349.72,708.97 l -7.57,64.77 c -48.73,4.69 -40.92,-2.15 -93.41,-27.89 -245.26,-333.37 -148.42,-187.12 -311.75,-577.01 -128.97,-307.88 -128.38,-96.43 -100.22,-508.5 16.66,-243.88 -80.63,-395 -116.37,-647.15 -50.13,-353.48 -210.86,96.11 -351.24,-27.21 -45.89,-40.32 61.15,-221.95 -111.45,-474.5 -231.79,-339.18 -183.8,-359.83 -542.93,-222.31 -377.27,144.46 -762.88,691.16 -901.22,1060.88 -162.45,434.15 -273.01,630.22 -520.76,45.75 -87.98,-207.53 -265.88,-1024.61 -341.13,-1091.59 -86.03,-76.55 -59.57,51.44 -189.61,-111.89 -135.62,-170.34 -411.19,-310.02 -626.29,-328.83 -295.2,-25.82 -469.83,19.1 -689.48,-161.3 -216.5,-177.81 -260.21,88.71 -581.32,-211.02 -122.9,-119.52 -244.43,-393.01 -441.11,-208.03 -2.62,108.29 151.32,252.52 201.7,376.83 62.45,137.25 132.36,240.28 182.58,384.69 372.12,-63.96 273.21,-128.56 457.82,-211.1 61.11,-27.32 85.34,108.98 205.06,200.02 221.03,168.08 170.85,330.93 -7.99,542.74 -273.9,324.42 -859.57,576.21 -1248.18,750.12 -396.42,178.41 -270.4,-177.07 -364.52,-480.48 -65.68,-133.32 -141.74,-160.68 -205.76,-259.89 -242.67,-375.98 -32.33,-487.54 -331.71,-614.22 -54.46,-182.95 -120.62,-469.82 -292.69,-590.79 -103.14,44.16 14.75,12.45 -88.53,87.37 -40.5,-54.58 -52.22,-92.79 -119.79,-124.6 -78.94,106.97 53.76,243.06 148.39,407.72 101.23,176.15 239.43,406.89 276.38,603.73 7.58,40.33 23.53,81.43 29.39,118.41 16.84,106.25 -54.91,187.04 89.58,287.59 128.94,89.72 58.62,65.43 97.1,154.01 99.37,125.55 406.55,465.65 444.9,581.93 -0.92,-1.29 38.61,199.07 314.88,177.27 207.45,-24.97 377.94,-94.74 583.85,-101.96 -0.29,54.11 -287.47,661.99 -307.26,696.68 -120.03,210.41 -240,391.09 -415.38,559.22 -320.45,272.12 -331.67,237.07 -555.13,647.41 -140.7,274.1 -62.1,275.87 -34.17,553.58 10.98,109.32 73.85,199.66 97.48,313.28 120.67,580.41 -41.07,636.43 -448.09,921.61 -88.45,61.96 -116.54,125.86 -161.53,200.2 214.62,598.07 -38.44,515.26 -159.4,673.26 -90.2,117.84 -3.58,255.54 -190.07,564.06 -95.44,157.9 -196.21,258.21 -338.72,399.81 -161.1,160.09 -513.03,141.02 -785.72,197.56 -148.91,30.88 -271.33,-26.02 -345.25,-159.67 l 38.74,-53.89 44.88,-39.75 c -11.54,-92.08 -168.62,-412.05 -216.99,-479.37 -143.88,-300.08 -188.41,-451.46 -239.02,-787.08 -90.19,-598.13 -380.4,-570.13 -133.7,-1131.32 131.17,-298.41 100.11,-277.85 63.66,-597.6 -2.49,-22.01 -3.43,-46.89 -14.23,-79.35 -38.87,-116.64 -99.03,-119.03 -123.96,-212.21 -21.8,-81.64 -21.1,-115.8 -69.06,-182.53 -45.17,-86.08 -294.7,-326.87 -236.86,-518.9 37.07,-123 15.45,-226.47 30.55,-357.49 42.54,-369.5 -237.11,-250.53 -306.35,-240.42 -112.86,16.49 -323.04,-353.09 -433.9,-212.11 -262.74,25.72 -377.24,154.03 -671.61,128.22 -143.13,-12.55 -236.32,31.42 -366.58,50.17 -194.49,27.99 -452.42,-168.92 -565.74,-312.19 -99.13,-125.37 -57.11,-191.43 -134.4,-327.07 -47.94,-84.1 -139.14,-177.38 -198.25,-265.48 -37.39,-55.74 -45.5,-96.42 -86.34,-145.07 -51.71,-61.59 -72.48,-49.03 -105.8,-129.28 9.67,-113.74 75.9,-240.73 84.3,-389.45 9,-159.03 -0.47,-338.66 0,-500.09 0.94,-319.51 97.55,-306.84 143.12,-360.22 75.1,-88 134.67,-203.76 207.92,-297.65 227.19,-291.12 406.21,-241.54 401.93,-608.75 -2.29,-195.54 72.94,-193.58 207.69,-297.88 120.04,-92.94 102.65,-211.55 224.82,-282.91 138.71,136.24 90.04,98.68 456.23,9.76 C 3324.17,67.34 3045.97,60.37 3673.59,13.79 3818.8,3 3946.1,-40.14 4098.42,-22.15 c 291.24,233.29 -218.06,409.6 309.57,573.32 220.67,68.46 473.41,309.8 685.63,314.14 80.52,-50.38 129.45,-176.32 193.63,-269.94 132.61,-59.79 437.39,78.34 583.78,121.75 91.69,27.2 190.61,80.95 294.07,61.14 96.05,-18.38 126.8,-59.99 246.63,-26.57 91.49,25.52 241.79,185.1 377.04,-243.6 49.41,-156.63 121.57,-377.95 96.48,-500.86 -125.37,-43.43 -139.73,55.41 -338.33,16.09 -32.26,-6.39 -130.42,-31.01 -161.48,-28.92 -0.07,0.01 -301.78,123.14 -407.82,-106.91 -39.64,-85.97 -44.99,-226.34 -44.99,-330.34 104.54,-51.12 72.93,-34.05 188.07,-46.88 81.84,-78.74 22.69,-73.13 150.87,-103.57 371.19,-88.13 301.01,-178.85 573.25,-86.32 162.43,55.21 190.61,85.95 374.15,101.19 98.02,8.13 213.84,-11.11 284.09,-113.6 32.22,-107.44 -217.21,-282.51 -295.17,-338.02 -289.29,-205.98 7.87,-170.72 -63.17,-375.09 -104.03,-14.73 -321.62,32.46 -396.46,133.48 49.19,62.56 92.92,71.21 103.88,138.24 -75.53,52.97 -135.66,28.29 -202.6,-22.62 -114.64,-87.23 -33.93,-70.21 -34.03,-153.59 -99.48,-98.04 -166.76,-66.75 -271.2,18.27 -128.79,104.85 -307.71,391.5 -297.95,514.25 10.57,133.04 80.24,114.47 -76.21,250.03 l -311.65,6.5 c -93.56,90.05 -4.28,77.86 -156.12,77.73 3.28,165.2 116.34,131.88 150.58,269.93 -55.76,81.36 -152.33,157.25 -258.97,166.1 l 6.35,-98.47 c 58.84,-40.94 64.74,-16.53 146.53,-68.46 l -44.49,-61.47 -19.69,64.09 c -274.57,-64.46 -311.91,-488.47 -471.14,-607.79 l -439.75,-375.69 c -116.59,-52.51 -33.39,-29.66 -130.45,-107.01 l -104.36,133.53 c 174.38,220.28 158.09,338.36 431.75,487.08 13.49,7.33 55.06,45.07 70.01,52.44 216.68,106.81 139.38,82.31 145.24,150.47 l -123.32,-42.73 c -51.22,139.01 63.26,211.65 -48.35,288.73 -53.27,-91.7 7.71,-154.53 -99.1,-257.33 -86.92,-83.64 -116.73,-46.83 -219.08,-120.79 -250.78,-181.22 -166.85,-153.56 -351.74,-345.72 -201.45,-209.39 -268.57,15.73 -451.75,6.46 -433.46,-21.96 -239.13,156.7 -329.79,270.27 l -317.63,189.92 c -30.85,82.19 -10.64,143.1 -41.96,207.38 -82.42,169.18 -244.36,168.04 -378.78,217.09 -348.56,127.14 -128.19,23.23 -398.65,-56.75 -169.38,-50.09 -185.03,-168.5 -151.43,-308.13 91.61,-564.39 -145.77,-593.53 586.65,-489.37 384.29,54.64 345.37,-459.46 -25.29,-669.58 -184.08,-104.36 175.97,-54.37 204.99,-122.62 59.62,-140.13 205.18,-33.34 414.7,-281.1 133.7,-158.1 256.29,5.29 297.01,-272.08 18,-122.53 488.53,-139.82 492.09,-227.98 3.49,-86.49 -99.68,-466.92 98.85,-396.16 36.11,240.46 -235.2,363.21 327.62,358.86 107.44,-0.85 29.5,44.18 105.03,86.29 96.82,34.69 212.05,-189.69 509.7,-126.28 111.13,26.64 288.9,-96.13 265.27,-267.21 -10.31,-74.64 36.02,-221.49 160.49,-156.63 303.1,157.89 79.65,-171.07 127.74,-263.46 75.91,-145.87 681.29,-104.64 518.99,-219.94 -104.77,-74.43 -577.1,28.24 -661.86,-56.73 -65.74,-65.91 -61.27,-282.19 -15.18,-384.46 17.14,-38.04 335.54,-599.47 27.36,-423.81 -203.78,144.56 -626.14,538.66 -528.85,817.27 116.55,333.77 47.04,136.37 -84.38,368.12 -42.86,75.58 -38.73,185.89 -40.59,271.1 -634.32,179.03 -279.42,158.49 -612.01,-410.68 -85.29,-145.92 -235.02,172.09 -436.83,118.18 -134.74,-35.99 -135.54,-488.41 -86.79,-569.24 147.84,-245.02 478.92,38.13 556.17,-471.17 -3.62,-227.96 28.97,-26.54 131.46,-253.2 14.7,-32.52 354.42,-222.62 488.59,-413.93 154.9,-220.85 662.55,-383.5 924,-420.61 429.81,-8.68 327.88,170.58 640.93,230.31 189.21,36.09 841.11,231.55 865.33,440.92 27.76,239.95 -1078.24,-62.49 -444.57,442.03 237.69,189.24 151.51,-41.89 214.98,-51.08 263.54,-38.14 324.54,-86.21 569.33,-210.5 177.2,-89.96 93.61,-497.45 263.69,-359.84 43.07,34.86 36.23,69.61 25,114.91 z m 1438.64,3661.21 c -82.69,-87.28 3.4,-282.35 118.63,-239.09 44.56,108.7 0.88,259.43 -118.63,239.09 z m -553.8,409.96 v 20.76 c -69.54,42.7 -61.72,1.98 -150.6,41.53 2.09,91.43 13.2,91.61 105.73,129.92 -80.93,163.48 147.35,315.12 -99.78,374.28 -201.69,48.28 -346.09,-62.4 -373.5,-149.42 -19.36,-61.41 111.63,-305.74 96.68,-365.84 -16.38,-65.78 -33.48,-39.22 -77.15,-89.04 -88.23,-100.63 -168.54,-373.22 -168.29,-502.08 42.54,-151.7 343.82,-257.41 489.26,-243.83 51.53,62.86 42.66,115.93 34.42,167.9 -181.68,17.06 -159.44,-0.55 -191.16,130.52 -8.36,34.59 -21.6,51.57 -33.18,92.55 44.98,74.67 108.01,118.3 131.9,163.39 45.05,85.01 -3.91,128.7 70.95,225.79 l 111.89,-99.13 z M 6394.7,-3605.05 c 285.97,90.35 5.54,273.05 -67.23,96.13 -21.46,-52.18 4.51,-97.2 67.23,-96.13 z m -566.89,-1636.01 c 8.87,9.36 -0.3,9.13 0,0 z m 9161.74,-621.32 c 75.35,17.62 86.14,19.95 129.08,83.05 -75.38,-17.62 -86.16,-19.94 -129.08,-83.05 z"
         id="path1" />
    </g>
  </g>
</svg>
